<svg width="173" height="37" viewBox="0 0 173 37" fill="none" xmlns="http://www.w3.org/2000/svg">
<path d="M169.809 33.2596L146.543 5.56303C146.24 5.20441 145.793 4.99475 145.324 4.99475H142.284C141.401 4.99475 140.689 5.70648 140.689 6.58923V33.2596H145.401V26.3961C145.401 26.192 145.467 26.021 145.6 25.8885C145.727 25.7561 145.898 25.6899 146.113 25.6899H157.219L163.58 33.2596H169.815H169.809ZM148.827 21.6348L145.401 25.3203V11.6265L153.809 21.6348H148.827Z" fill="#DEE0FC"/>
<path d="M129.225 33.2596V5.00024H133.898V33.2651H129.225V33.2596Z" fill="#DEE0FC"/>
<path d="M172.579 9.84983V10.0374C168.75 10.385 167.283 11.8581 166.935 15.6816H166.748C166.4 11.8581 164.932 10.385 161.104 10.0374V9.84983C164.932 9.50224 166.4 8.03465 166.753 4.20569H166.93C167.283 8.03465 168.75 9.50224 172.579 9.84983Z" fill="#DEE0FC"/>
<path d="M161.981 2.58918V2.76574C160.739 2.96987 160.176 3.53263 159.972 4.77401H159.796C159.592 3.53263 159.029 2.96987 157.793 2.76574V2.58918C159.029 2.38505 159.597 1.82229 159.796 0.586426H159.972C160.171 1.82229 160.739 2.39056 161.981 2.58918Z" fill="#DEE0FC"/>
<path fill-rule="evenodd" clip-rule="evenodd" d="M14.72 21.6291V16.316L0.0331035 21.7726H0V27.2291H0.0331035L14.72 32.6912V27.3671L7.18897 24.4926L14.72 21.6291Z" fill="#844FE5"/>
<path fill-rule="evenodd" clip-rule="evenodd" d="M99.8017 32.6802V27.3671L107.327 24.5092L99.8017 21.6512V16.3381L114.472 21.8002H114.511V27.2623H114.472L99.8017 32.6968V32.6802ZM93.501 8.81262L84.8721 36.5037H89.9921L98.621 8.81262H93.501Z" fill="#844FE5"/>
<path fill-rule="evenodd" clip-rule="evenodd" d="M39.0623 15.5713C40.5188 17.1713 41.2857 19.2844 41.1974 21.4471V33.243H36.0774V22.534C36.1381 21.3423 35.7574 20.1671 35.0071 19.2347C34.2954 18.4071 33.2471 17.9492 32.1547 17.9933C28.9492 17.9933 27.3436 20.2168 27.3436 24.6692V33.243H22.2236V13.8775H27.3436V15.6265C28.9712 14.043 31.1726 13.2044 33.4402 13.3037C35.5533 13.2154 37.6002 14.043 39.0623 15.5713Z" fill="#DEE0FC"/>
<path fill-rule="evenodd" clip-rule="evenodd" d="M46.6094 5.552V33.243H51.7294V5.552H46.6094Z" fill="#DEE0FC"/>
<path fill-rule="evenodd" clip-rule="evenodd" d="M79.0233 33.243H74.7475L70.5599 21.8388L66.3282 33.243H62.0578L54.8799 13.8444H60.353L64.3861 25.4471L68.5406 13.8444H72.5351L76.6895 25.4857L80.7226 13.8444H86.1957L79.0123 33.243H79.0233Z" fill="#DEE0FC"/>
</svg>
